<?xml version="1.0" standalone="no"?>
<!DOCTYPE svg PUBLIC "-//W3C//DTD SVG 20010904//EN"
 "http://www.w3.org/TR/2001/REC-SVG-20010904/DTD/svg10.dtd">
<svg version="1.0" xmlns="http://www.w3.org/2000/svg"
 width="748.000000pt" height="748.000000pt" viewBox="0 0 748.000000 748.000000"
 preserveAspectRatio="xMidYMid meet">
<metadata>
Created by potrace 1.14, written by Peter Selinger 2001-2017
</metadata>
<g transform="translate(0.000000,748.000000) scale(0.100000,-0.100000)"
fill="#000000" stroke="none">
<path d="M1115 7438 c-2 -7 -32 -121 -65 -253 -34 -132 -74 -289 -90 -350 -16
-60 -60 -234 -99 -385 -39 -151 -172 -669 -296 -1150 l-226 -875 388 -382
c266 -262 384 -386 377 -393 -5 -5 -115 -64 -244 -130 l-235 -119 986 -1 986
0 7 -46 c3 -26 6 -89 6 -140 l0 -94 124 0 124 0 6 -67 c3 -38 8 -270 11 -518
3 -247 8 -521 11 -608 l6 -157 -58 0 c-33 0 -90 -3 -127 -7 l-69 -6 4 -131 3
-131 -504 -3 -504 -2 7 -137 c4 -75 9 -140 12 -144 3 -5 284 -9 625 -9 l619 0
0 -183 c0 -101 3 -265 7 -365 l6 -182 -934 -2 c-806 -3 -934 -5 -934 -17 0 -8
16 -24 35 -35 34 -21 48 -21 890 -24 591 -2 870 1 907 8 69 15 105 51 126 127
9 32 35 166 57 298 23 132 57 323 76 425 70 377 70 554 -1 673 -31 52 -35 67
-35 127 0 38 -4 71 -9 74 -9 6 -7 20 29 186 17 84 20 131 19 400 0 282 -9 510
-24 620 -10 69 3 79 120 95 55 8 143 15 195 15 126 0 168 12 185 53 10 26 14
310 18 1402 3 754 3 1577 -1 1830 -6 417 -9 463 -25 488 -9 15 -24 27 -32 27
-34 0 -45 29 -45 121 l0 89 -517 -2 -517 -3 -18 -160 c-34 -301 -79 -645 -87
-667 -6 -16 -24 47 -70 238 -82 338 -80 331 -117 366 -23 22 -38 51 -54 107
-12 42 -29 86 -36 99 l-14 22 -491 0 c-383 0 -491 -3 -494 -12z m943 -71 c5
-60 -16 -142 -49 -186 -35 -49 -36 -59 -5 -71 17 -6 22 -15 20 -32 -58 -341
-83 -533 -72 -540 22 -14 482 -10 500 5 12 9 24 98 57 412 23 220 44 412 47
428 l6 27 450 0 451 0 -6 -282 c-4 -156 -9 -490 -12 -743 -3 -253 -8 -529 -11
-612 l-6 -153 -107 0 c-105 0 -106 -1 -82 -19 13 -10 51 -28 85 -40 34 -12 71
-30 84 -39 l23 -18 -7 -492 -7 -492 -258 0 c-258 0 -258 0 -270 23 -26 51 -51
67 -100 67 -38 0 -62 -9 -126 -47 -75 -44 -83 -47 -198 -59 -122 -13 -205 -17
-205 -10 0 21 72 688 76 711 4 16 23 53 42 83 48 71 112 103 295 147 l142 34
-197 0 -196 1 -32 27 -32 27 6 75 c4 42 9 91 12 109 l6 32 -286 0 c-185 0
-286 -4 -286 -10 0 -13 -178 -1145 -186 -1182 l-6 -28 -424 0 c-233 0 -424 2
-424 4 0 2 18 83 40 181 22 98 40 182 40 186 0 45 -100 -97 -164 -232 -62
-131 -71 -138 -175 -147 -52 -4 -63 -2 -59 9 3 8 166 661 364 1452 l359 1437
440 -2 440 -3 3 -38z m356 -3532 c22 -41 19 -49 -18 -39 -26 6 -33 25 -20 58
9 24 17 20 38 -19z"/>
<path d="M4015 7438 c-2 -7 -6 -65 -10 -128 -3 -63 -9 -118 -11 -122 -3 -4
-76 -8 -163 -8 l-159 0 -8 -527 c-9 -527 -9 -668 -6 -2015 l2 -718 79 0 c99 0
111 -4 111 -42 0 -43 39 -78 89 -78 47 0 47 0 57 -132 l6 -98 62 0 c91 0 104
-6 111 -50 8 -47 29 -67 81 -78 l39 -8 6 -139 5 -140 72 -204 c40 -111 72
-207 72 -212 0 -5 -33 -9 -74 -9 -90 0 -86 9 -86 -185 0 -189 -11 -400 -20
-383 -5 7 -20 58 -35 112 -14 55 -37 120 -51 146 -13 25 -37 102 -53 171 l-28
124 -79 3 c-43 1 -226 6 -407 10 -286 6 -328 5 -332 -8 -2 -8 -25 -127 -50
-265 -25 -137 -54 -293 -64 -345 -10 -52 -18 -96 -17 -96 0 -1 246 -7 546 -14
300 -6 546 -13 547 -14 5 -4 -53 -545 -59 -551 -4 -4 -125 -31 -270 -61 -403
-83 -448 -94 -448 -110 0 -24 61 -54 110 -54 53 0 515 93 580 117 25 9 64 29
88 46 24 16 45 27 47 25 7 -7 53 -249 110 -572 30 -176 57 -321 58 -323 2 -2
7 191 11 429 3 238 9 576 13 750 l6 318 124 0 123 0 0 94 c0 51 3 114 6 140
l7 46 502 0 502 0 8 146 c4 80 5 148 2 150 -2 3 -287 6 -633 7 l-629 2 3 310
c1 171 5 353 8 406 l6 97 656 -7 c782 -7 826 -7 1101 5 l213 9 -88 49 c-49 27
-106 60 -126 74 l-38 24 18 31 c9 17 164 177 345 356 l327 326 0 52 c0 33 -36
191 -96 425 -127 496 -128 502 -168 541 -25 26 -38 52 -55 118 -12 46 -24 90
-26 97 -3 9 -83 12 -352 13 -191 0 -355 3 -364 7 -14 6 17 76 188 422 250 506
285 583 290 635 4 29 -16 121 -68 324 -68 265 -75 287 -109 326 -26 29 -43 65
-59 121 -12 43 -24 85 -26 92 -4 9 -219 12 -1035 12 -816 0 -1031 -3 -1035
-12z m2089 -333 c42 -168 76 -309 76 -315 0 -7 -246 -10 -736 -10 l-737 0 6
-37 c3 -21 9 -73 13 -116 l7 -78 -26 10 c-15 6 -44 19 -66 31 -50 25 -71 25
-256 -2 -134 -19 -163 -20 -269 -10 -66 6 -123 9 -128 6 -20 -13 16 -32 84
-43 40 -7 82 -15 93 -17 11 -3 115 -11 231 -18 l211 -14 71 -52 c57 -41 73
-59 77 -84 3 -17 25 -224 50 -461 25 -236 47 -436 50 -442 3 -10 179 -13 834
-13 l829 0 6 -22 c30 -109 216 -864 216 -879 0 -18 -11 -19 -374 -19 -208 0
-386 4 -399 9 -14 5 -41 24 -61 41 -30 27 -42 50 -70 140 -19 59 -42 122 -51
139 -15 31 -59 60 -71 48 -3 -3 -12 -88 -19 -189 -7 -101 -14 -184 -14 -185
-1 -2 -327 -3 -725 -3 l-723 0 -6 93 c-4 50 -9 149 -13 220 l-7 127 -212 0
-213 0 -6 163 c-3 89 -7 313 -8 499 l-3 336 23 25 c17 18 43 29 89 37 37 7 61
16 56 21 -5 5 -45 20 -89 32 l-79 23 -6 204 c-3 113 -7 346 -8 517 l-1 313
173 2 172 3 -4 138 -3 137 970 0 970 0 76 -305z"/>
<path d="M6497 3194 c-4 -37 -5 -69 -3 -71 4 -4 71 -6 165 -4 l75 1 -104 66
c-57 36 -109 68 -116 71 -7 2 -13 -19 -17 -63z"/>
<path d="M6736 2915 c-4 -28 -86 -1111 -86 -1142 0 -2 -56 -3 -124 -3 l-123 0
-6 -82 c-4 -46 -7 -107 -7 -135 l0 -53 -507 -2 -508 -3 -7 -140 c-4 -76 -4
-143 0 -147 5 -5 286 -7 625 -6 l617 3 -70 94 c-60 80 -70 99 -70 135 0 104
41 173 143 239 81 52 111 93 121 167 3 25 13 146 21 270 9 124 22 314 30 422
22 293 19 346 -24 399 l-19 23 -6 -39z"/>
<path d="M900 2555 c28 -30 76 -45 150 -46 115 -2 115 -1 0 -122 l-102 -107
497 0 498 0 -6 113 c-4 61 -7 129 -7 150 l0 37 -527 0 -526 0 23 -25z"/>
<path d="M825 2110 l-110 -110 119 0 118 0 -7 108 c-4 59 -8 108 -9 109 -1 1
-51 -47 -111 -107z"/>
<path d="M6600 1083 c-1 -56 -48 -595 -53 -599 -2 -3 -424 -8 -936 -11 -818
-5 -931 -8 -929 -21 2 -8 21 -24 43 -36 40 -21 46 -21 925 -21 1001 0 933 -5
970 78 21 48 42 251 43 417 1 90 -2 113 -22 158 -24 52 -41 67 -41 35z"/>
</g>
</svg>
